<svg xmlns="http://www.w3.org/2000/svg" version="1.1" xmlns:xlink="http://www.w3.org/1999/xlink" xmlns:svgjs="http://svgjs.dev/svgjs" width="2000" height="1500" viewBox="0 0 2000 1500"><rect width="2000" height="1500" fill="#ffffff"></rect><g transform="matrix(0.75,0,0,0.75,249.090909090909,638.573999079312)"><svg viewBox="0 0 396 59" data-background-color="#ffffff" preserveAspectRatio="xMidYMid meet" height="297" width="2000" xmlns="http://www.w3.org/2000/svg" xmlns:xlink="http://www.w3.org/1999/xlink"><g id="tight-bounds" transform="matrix(1,0,0,1,0.2400000000000091,0.013508661371901098)"><svg viewBox="0 0 395.52 58.972982677256205" height="58.972982677256205" width="395.52"><g><svg viewBox="0 0 496.3901189842446 74.01295987059821" height="58.972982677256205" width="395.52"><g><rect width="4.365311768312994" height="74.01295987059821" x="85.07728949783471" y="0" fill="#101820" opacity="1" stroke-width="0" stroke="transparent" fill-opacity="1" class="rect-yte-0" data-fill-palette-color="primary" rx="1%" id="yte-0" data-palette-color="#101820"></rect></g><g transform="matrix(1,0,0,1,100.87011898424454,0.18411184047412377)"><svg viewBox="0 0 395.52000000000004 73.64473618964996" height="73.64473618964996" width="395.52000000000004"><g id="textblocktransform"><svg viewBox="0 0 395.52000000000004 73.64473618964996" height="73.64473618964996" width="395.52000000000004" id="textblock"><g><svg viewBox="0 0 395.52000000000004 48.40609684210526" height="48.40609684210526" width="395.52000000000004"><g transform="matrix(1,0,0,1,0,0)"><svg width="395.52000000000004" viewBox="3.8 -32.6 356.21999999999997 43.6" height="48.40609684210526" data-palette-color="#101820"><path d="M15.4 0.6L15.4 0.6Q14.15 0.6 13.23 0.45 12.3 0.3 11.7 0.1L11.7 0.1 6.75-4.05 6.75-7.1Q7.95-5.5 9.2-4.6 10.45-3.7 11.85-3.35 13.25-3 14.8-3L14.8-3Q19.45-3 21.18-5.5 22.9-8 22.9-12.5L22.9-12.5Q22.9-15.75 22.13-17.98 21.35-20.2 19.63-21.35 17.9-22.5 15.05-22.5L15.05-22.5Q13-22.5 11.43-21.95 9.85-21.4 8.68-20.48 7.5-19.55 6.55-18.45L6.55-18.45 6.55-21.65 11.75-25.4Q12.65-25.7 13.73-25.9 14.8-26.1 15.95-26.1L15.95-26.1Q18.75-26.1 21.33-24.73 23.9-23.35 25.55-20.4 27.2-17.45 27.2-12.75L27.2-12.75Q27.2-8.9 25.9-5.88 24.6-2.85 22-1.13 19.4 0.6 15.4 0.6ZM9 11L3.8 11 4.3 7 4.3-21.5 3.8-25.5 7.5-25.5 8.5-20.9 8.5 7 9 11ZM44.55 0.6L44.55 0.6Q41.55 0.6 38.8-0.7 36.05-2 34.32-4.95 32.6-7.9 32.6-12.75L32.6-12.75Q32.6-16.45 33.6-19 34.6-21.55 36.3-23.13 38-24.7 40.15-25.4 42.3-26.1 44.55-26.1L44.55-26.1Q46.8-26.1 48.95-25.4 51.1-24.7 52.8-23.13 54.5-21.55 55.5-19 56.5-16.45 56.5-12.75L56.5-12.75Q56.5-7.9 54.77-4.95 53.05-2 50.32-0.7 47.6 0.6 44.55 0.6ZM44.55-3L44.55-3Q48.1-3 50.15-5.2 52.2-7.4 52.2-12.85L52.2-12.85Q52.2-16.5 51.27-18.6 50.35-20.7 48.65-21.6 46.95-22.5 44.55-22.5L44.55-22.5Q42.15-22.5 40.45-21.6 38.75-20.7 37.82-18.6 36.9-16.5 36.9-12.85L36.9-12.85Q36.9-7.4 38.95-5.2 41-3 44.55-3ZM61.9-12.8L61.9-12.8Q61.9-17.75 63.52-20.68 65.15-23.6 67.8-24.85 70.45-26.1 73.45-26.1L73.45-26.1Q76.9-26.1 79.22-24.73 81.55-23.35 82.72-20.83 83.9-18.3 83.9-14.8L83.9-14.8Q83.9-13.8 83.8-12.95 83.7-12.1 83.55-11.35L83.55-11.35 64.1-11.35 64.1-12.25 68.6-14.75 79.65-14.75Q79.65-17 79.17-18.75 78.7-20.5 77.35-21.5 76-22.5 73.4-22.5L73.4-22.5Q70.7-22.5 69.12-21.33 67.55-20.15 66.87-18.05 66.2-15.95 66.2-13.15L66.2-13.15Q66.2-9.8 66.95-7.75 67.7-5.7 68.95-4.7 70.2-3.7 71.7-3.35 73.2-3 74.7-3L74.7-3Q77.05-3 78.77-3.48 80.5-3.95 81.85-4.75L81.85-4.75 82.65-4.25 82.65-0.65Q81.1-0.1 79.22 0.25 77.35 0.6 75.15 0.6L75.15 0.6Q72.75 0.6 70.37 0.03 68-0.55 66.1-2 64.2-3.45 63.05-6.08 61.9-8.7 61.9-12.8ZM127.24 0L122.04 0 122.54-4 122.54-16.55Q122.54-19.45 120.94-20.88 119.34-22.3 116.74-22.3L116.74-22.3Q114.44-22.3 112.82-21.43 111.19-20.55 110.14-19.45 109.09-18.35 108.59-17.7L108.59-17.7 108.59-21.35 113.79-25.6Q114.89-25.9 115.87-26 116.84-26.1 117.64-26.1L117.64-26.1Q120.99-26.1 122.99-24.98 124.99-23.85 125.87-22 126.74-20.15 126.74-17.95L126.74-17.95 126.74-4 127.24 0ZM95.24 0L90.04 0 90.54-4 90.54-21.5 90.04-25.5 93.79-25.5 94.74-20.1 94.74-4 95.24 0ZM111.24 0L106.04 0 106.54-4 106.54-16.55Q106.54-19.45 104.99-20.88 103.44-22.3 100.84-22.3L100.84-22.3Q98.59-22.3 96.92-21.45 95.24-20.6 94.19-19.55 93.14-18.5 92.64-17.9L92.64-17.9 92.64-21.35 97.84-25.6Q99.19-25.9 100.27-26 101.34-26.1 102.09-26.1L102.09-26.1Q105.24-26.1 107.14-24.98 109.04-23.85 109.89-22 110.74-20.15 110.74-17.95L110.74-17.95 110.74-4 111.24 0ZM150.84-24.9L150.84-24.9 150.84-21.1 150.04-20.6Q148.64-21.5 146.94-22 145.24-22.5 143.04-22.5L143.04-22.5Q141.54-22.5 140.32-22.23 139.09-21.95 138.37-21.28 137.64-20.6 137.64-19.4L137.64-19.4Q137.64-17.95 138.69-17.1 139.74-16.25 141.42-15.65 143.09-15.05 144.94-14.45 146.79-13.85 148.47-12.95 150.14-12.05 151.19-10.55 152.24-9.05 152.24-6.65L152.24-6.65Q152.24-3.8 150.77-2.23 149.29-0.65 146.89-0.03 144.49 0.6 141.79 0.6L141.79 0.6Q139.04 0.6 136.94 0.15 134.84-0.3 133.34-0.8L133.34-0.8 133.34-4.5 134.14-5Q135.74-4.05 137.59-3.53 139.44-3 142.14-3L142.14-3Q143.69-3 145.04-3.25 146.39-3.5 147.27-4.25 148.14-5 148.14-6.45L148.14-6.45Q148.14-8.1 147.09-9.05 146.04-10 144.37-10.6 142.69-11.2 140.82-11.75 138.94-12.3 137.27-13.13 135.59-13.95 134.54-15.4 133.49-16.85 133.49-19.2L133.49-19.2Q133.49-21.35 134.37-22.7 135.24-24.05 136.72-24.8 138.19-25.55 139.97-25.83 141.74-26.1 143.54-26.1L143.54-26.1Q145.74-26.1 147.57-25.78 149.39-25.45 150.84-24.9ZM179.19 0L175.24 0 174.49-2.65 174.49-16.25Q174.49-18.25 173.94-19.63 173.39-21 171.79-21.75 170.19-22.5 167.04-22.5L167.04-22.5Q165.19-22.5 163.61-22.15 162.04-21.8 160.59-20.85L160.59-20.85 159.79-21.35 159.79-24.95Q161.99-25.65 163.91-25.88 165.84-26.1 167.49-26.1L167.49-26.1Q171.84-26.1 174.26-24.95 176.69-23.8 177.69-21.58 178.69-19.35 178.69-16.1L178.69-16.1 178.69-4 179.19 0ZM166.79 0.6L166.79 0.6Q164.59 0.6 162.44-0.13 160.29-0.85 158.86-2.63 157.44-4.4 157.44-7.5L157.44-7.5Q157.44-9.9 158.34-11.5 159.24-13.1 160.76-14 162.29-14.9 164.19-15.28 166.09-15.65 168.09-15.65L168.09-15.65Q169.29-15.65 170.31-15.55 171.34-15.45 172.34-15.2L172.34-15.2 174.94-13.35 174.94-11.05Q173.64-11.75 172.16-12.03 170.69-12.3 168.79-12.3L168.79-12.3Q165.29-12.3 163.46-11.28 161.64-10.25 161.64-7.45L161.64-7.45Q161.64-5.15 162.99-4.03 164.34-2.9 167.34-2.9L167.34-2.9Q170.44-2.9 172.26-3.9 174.09-4.9 175.09-6.3L175.09-6.3 176.09-4.05 171.29 0Q170.29 0.25 169.14 0.43 167.99 0.6 166.79 0.6ZM208.39 0L203.19 0 203.69-4 203.69-16.75Q203.69-19.5 202.14-20.9 200.59-22.3 197.54-22.3L197.54-22.3Q195.14-22.3 193.44-21.6 191.74-20.9 190.66-20.03 189.59-19.15 189.04-18.55L189.04-18.55 189.04-21.45 194.44-25.55Q195.44-25.8 196.49-25.95 197.54-26.1 198.64-26.1L198.64-26.1Q201.04-26.1 203.14-25.28 205.24-24.45 206.56-22.45 207.89-20.45 207.89-16.9L207.89-16.9 207.89-4 208.39 0ZM190.99 0L185.79 0 186.29-4 186.29-21.6 185.79-25.5 189.79-25.5 190.49-22.55 190.49-4 190.99 0ZM227.58 0.6L227.58 0.6Q225.33 0.6 223.01-0.03 220.68-0.65 218.73-2.18 216.78-3.7 215.58-6.28 214.38-8.85 214.38-12.75L214.38-12.75Q214.38-16.5 215.48-19.05 216.58-21.6 218.46-23.15 220.33-24.7 222.68-25.4 225.03-26.1 227.53-26.1L227.53-26.1Q229.38-26.1 230.83-25.8 232.28-25.5 233.53-24.95L233.53-24.95 233.53-21.35 232.73-20.85Q231.53-21.7 230.18-22.1 228.83-22.5 227.18-22.5L227.18-22.5Q224.98-22.5 223.03-21.63 221.08-20.75 219.88-18.65 218.68-16.55 218.68-12.85L218.68-12.85Q218.68-9.9 219.46-7.98 220.23-6.05 221.51-4.98 222.78-3.9 224.31-3.45 225.83-3 227.28-3L227.28-3Q229.18-3 230.66-3.55 232.13-4.1 233.08-4.75L233.08-4.75 233.88-4.25 233.88-0.65Q232.48-0.05 230.91 0.28 229.33 0.6 227.58 0.6ZM242.58-7.15L242.58-7.15 242.58-29.1 242.33-32.6 247.03-32.6 246.78-29.1 246.78-7.25Q246.78-4.85 247.85-3.93 248.93-3 251.03-3L251.03-3Q252.03-3 252.75-3.2 253.48-3.4 254.13-3.75L254.13-3.75 254.93-3.25 254.93-0.15Q253.83 0.25 252.71 0.43 251.58 0.6 250.53 0.6L250.53 0.6Q248.53 0.6 246.71-0.08 244.88-0.75 243.73-2.43 242.58-4.1 242.58-7.15ZM240.78-22L238.28-21.75 238.28-25.5 241.48-25.5 244.68-24 247.88-25.5 254.43-25.5 254.43-21.75 251.93-22 240.78-22ZM270.23 0.6L270.23 0.6Q268.68 0.6 267 0.2 265.33-0.2 263.9-1.18 262.48-2.15 261.6-3.88 260.73-5.6 260.73-8.3L260.73-8.3 260.73-21.5 260.23-25.5 265.43-25.5 264.93-21.5 264.93-8.95Q264.93-6.45 265.75-5.15 266.58-3.85 267.95-3.43 269.33-3 270.98-3L270.98-3Q274.18-3 275.93-3.98 277.68-4.95 279.03-6.35L279.03-6.35 279.03-3.55 274.48-0.05Q273.53 0.25 272.48 0.43 271.43 0.6 270.23 0.6ZM282.83 0L278.68 0 278.13-3.15 278.13-21.5 277.63-25.5 282.83-25.5 282.33-21.5 282.33-4 282.83 0ZM310.57 0L306.63 0 305.88-2.65 305.88-16.25Q305.88-18.25 305.32-19.63 304.77-21 303.18-21.75 301.57-22.5 298.43-22.5L298.43-22.5Q296.57-22.5 295-22.15 293.43-21.8 291.98-20.85L291.98-20.85 291.18-21.35 291.18-24.95Q293.38-25.65 295.3-25.88 297.23-26.1 298.88-26.1L298.88-26.1Q303.23-26.1 305.65-24.95 308.07-23.8 309.07-21.58 310.07-19.35 310.07-16.1L310.07-16.1 310.07-4 310.57 0ZM298.18 0.6L298.18 0.6Q295.98 0.6 293.82-0.13 291.68-0.85 290.25-2.63 288.82-4.4 288.82-7.5L288.82-7.5Q288.82-9.9 289.73-11.5 290.63-13.1 292.15-14 293.68-14.9 295.57-15.28 297.48-15.65 299.48-15.65L299.48-15.65Q300.68-15.65 301.7-15.55 302.73-15.45 303.73-15.2L303.73-15.2 306.32-13.35 306.32-11.05Q305.02-11.75 303.55-12.03 302.07-12.3 300.18-12.3L300.18-12.3Q296.68-12.3 294.85-11.28 293.02-10.25 293.02-7.45L293.02-7.45Q293.02-5.15 294.38-4.03 295.73-2.9 298.73-2.9L298.73-2.9Q301.82-2.9 303.65-3.9 305.48-4.9 306.48-6.3L306.48-6.3 307.48-4.05 302.68 0Q301.68 0.25 300.52 0.43 299.38 0.6 298.18 0.6ZM322.37 0L317.17 0 317.67-4 317.67-21.5 317.17-25.5 320.52-25.5 321.32-22.55 321.87-22.55 321.87-4 322.37 0ZM320.82-16.45L320.82-16.45 320.82-21.7 325.22-25.45Q327.02-26.1 328.92-26.1L328.92-26.1Q329.77-26.1 330.67-25.98 331.57-25.85 332.52-25.45L332.52-25.45 332.52-22.1 331.72-21.6Q330.87-21.9 330.1-22 329.32-22.1 328.67-22.1L328.67-22.1Q325.72-22.1 323.87-20.58 322.02-19.05 320.82-16.45ZM338.67 7.3L339.27 6.8Q339.67 7.1 340.1 7.2 340.52 7.3 340.92 7.3L340.92 7.3Q342.07 7.3 343.05 6.68 344.02 6.05 344.52 4.75L344.52 4.75 345.97 0.85 335.42-25.5 340.22-25.5 341.32-21.8 347.42-5.9 347.87-3.05 348.17-3.05 348.62-5.9 354.12-21.8 355.22-25.5 360.02-25.5 348.02 5.95Q347.32 7.8 346.17 8.9 345.02 10 343.67 10.5 342.32 11 340.92 11L340.92 11Q340.22 11 339.69 10.88 339.17 10.75 338.67 10.55L338.67 10.55 338.67 7.3Z" opacity="1" transform="matrix(1,0,0,1,0,0)" fill="#101820" class="wordmark-text-0" data-fill-palette-color="primary" id="text-0"></path></svg></g></svg></g><g transform="matrix(1,0,0,1,0,59.83361456020211)"><svg viewBox="0 0 232.20979200000002 13.811121629447854" height="13.811121629447854" width="232.20979200000002"><g transform="matrix(1,0,0,1,0,0)"><svg width="232.20979200000002" viewBox="0.25 -34.2 774.16 46.050000000000004" height="13.811121629447854" data-palette-color="#27292a"><path d="M13.75-1.15L13.75-1.15 13.65 0.05 0.4 0.05 0.4-1.25Q2.25-1.6 3.15-1.93 4.05-2.25 4.38-2.78 4.7-3.3 4.75-4.23 4.8-5.15 4.85-6.7L4.85-6.7 4.85-24.85Q4.85-26.3 4.83-27.75 4.8-29.2 4.7-30.6L4.7-30.6Q4.65-31.35 4.38-31.63 4.1-31.9 3.18-32.1 2.25-32.3 0.25-32.75L0.25-32.75 0.25-33.85 0.6-34.15 13.1-34.15 13.4-33.85 13.4-32.8 10.05-32.05Q9.05-31.8 8.95-30.75L8.95-30.75Q8.75-29.3 8.72-27.03 8.7-24.75 8.75-22.33 8.8-19.9 8.8-17.95L8.8-17.95Q8.8-15.45 8.83-13.1 8.85-10.75 8.9-8.45L8.9-8.45Q8.95-7.4 8.9-5.98 8.85-4.55 9.15-3.43 9.45-2.3 10.5-2L10.5-2Q11.05-1.85 11.8-1.65 12.55-1.45 13.15-1.3 13.75-1.15 13.75-1.15ZM23.75-0.9L23.75-0.9 20.25 0.3 19.5-0.05Q19.55-1 19.62-2.85 19.7-4.7 19.77-6.93 19.85-9.15 19.9-11.28 19.95-13.4 19.95-14.9L19.95-14.9Q19.95-17.4 19.65-19.03 19.35-20.65 18.1-20.65L18.1-20.65Q17.3-20.65 16.37-20.13 15.45-19.6 14.35-18.9L14.35-18.9 13.5-20Q14.55-20.75 15.75-21.58 16.95-22.4 18.15-22.98 19.35-23.55 20.25-23.55L20.25-23.55Q22.15-23.55 22.9-22.55 23.65-21.55 23.85-20.15L23.85-20.15 24.25-19.85Q26.35-21.15 28.82-22.3 31.3-23.45 33.7-23.45L33.7-23.45Q34.8-23.45 35.82-23.15 36.85-22.85 37.55-22L37.55-22Q38.05-21.4 38.25-19.83 38.45-18.25 38.5-16.32 38.55-14.4 38.55-12.8L38.55-12.8Q38.55-9.05 38.57-6.9 38.6-4.75 39.07-3.88 39.55-3 40.95-3L40.95-3Q41.8-3 42.9-3.65 44-4.3 44.95-5L44.95-5 45.6-5 46.05-3.95Q44.35-2.25 42.17-0.88 40 0.5 38.2 0.5L38.2 0.5Q36.15 0.5 35.37-0.8 34.6-2.1 34.6-3.9L34.6-3.9 34.85-12.45Q34.85-16.2 33.92-18.35 33-20.5 30.35-20.5L30.35-20.5Q28.65-20.5 26.95-19.53 25.25-18.55 23.9-17.45L23.9-17.45Q23.8-14.75 23.7-11.65 23.6-8.55 23.6-5.8L23.6-5.8Q23.6-4.75 23.65-3.58 23.7-2.4 23.75-0.9ZM62.65-19.15L62.65-19.15 59.9-17.3 59.3-17.65Q59.2-19.3 58.47-20.43 57.75-21.55 56.05-21.55L56.05-21.55Q54.3-21.55 53.12-20.4 51.95-19.25 51.95-17.5L51.95-17.5Q51.95-16 53.32-14.93 54.7-13.85 57.45-12.7L57.45-12.7Q60.34-11.45 61.77-10.05 63.2-8.65 63.2-6.9L63.2-6.9Q63.2-4.35 61.77-2.63 60.34-0.9 58.17-0.03 56 0.85 53.8 0.85L53.8 0.85Q51.55 0.85 49.62-0.05 47.7-0.95 46.45-3.3L46.45-3.3 48.9-6.85 49.59-6.8Q49.75-4.5 51.34-2.78 52.95-1.05 55.3-1.05L55.3-1.05Q56.9-1.05 58.22-2.18 59.55-3.3 59.55-4.85L59.55-4.85Q59.55-6.15 58.8-7.05 58.05-7.95 56.92-8.6 55.8-9.25 54.59-9.75L54.59-9.75Q53.05-10.4 51.59-11.25 50.15-12.1 49.25-13.3 48.34-14.5 48.34-16.15L48.34-16.15Q48.34-18.4 49.65-20 50.95-21.6 52.95-22.45 54.95-23.3 57-23.3L57-23.3Q58.3-23.3 59.57-22.9 60.84-22.5 61.72-21.6 62.59-20.7 62.65-19.15ZM74.64 10.3L74.64 10.3 70.59 11.85 70.09 11.3Q70.19 10.45 70.24 8.83 70.29 7.2 70.32 5.25 70.34 3.3 70.37 1.33 70.39-0.65 70.39-2.25 70.39-3.85 70.39-4.7L70.39-4.7 70.39-15.75Q70.39-16.9 70.22-18 70.04-19.1 69.62-19.85 69.19-20.6 68.44-20.6L68.44-20.6Q67.64-20.6 66.67-20.15 65.69-19.7 64.79-19.15L64.79-19.15 64.09-20.1Q65.59-21.3 67.42-22.4 69.24-23.5 70.89-23.5L70.89-23.5Q72.59-23.5 73.29-22.45 73.99-21.4 74.14-19.75L74.14-19.75 74.54-19.55Q76.59-21.15 78.87-22.2 81.14-23.25 83.74-23.25L83.74-23.25Q86.29-23.25 87.79-21.95 89.29-20.65 89.94-18.73 90.59-16.8 90.59-14.9L90.59-14.9Q90.59-12.15 89.67-9.4 88.74-6.65 87.02-4.4 85.29-2.15 82.89-0.8 80.49 0.55 77.59 0.55L77.59 0.55Q76.14 0.55 74.64 0.15L74.64 0.15 74.14 0.55Q74.19 1.7 74.24 3.5 74.29 5.3 74.39 7.15 74.49 9 74.64 10.3ZM74.24-3.3L74.24-3.3Q75.14-2.5 76.27-1.98 77.39-1.45 78.64-1.45L78.64-1.45Q80.89-1.45 82.39-2.4 83.89-3.35 84.77-4.93 85.64-6.5 86.02-8.33 86.39-10.15 86.39-11.95L86.39-11.95Q86.39-14.15 85.77-16 85.14-17.85 83.99-19 82.84-20.15 81.24-20.15L81.24-20.15Q79.34-20.15 77.69-19.4 76.04-18.65 74.29-17.25L74.29-17.25Q74.29-17.15 74.27-16.5 74.24-15.85 74.22-15.03 74.19-14.2 74.17-13.5 74.14-12.8 74.14-12.6L74.14-12.6Q74.14-10.55 74.17-8.4 74.19-6.25 74.22-4.8 74.24-3.35 74.24-3.3ZM102.89-31.25L102.89-31.25Q102.84-30 101.97-29.23 101.09-28.45 99.89-28.45L99.89-28.45Q98.69-28.45 97.84-29.3 96.99-30.15 96.99-31.35L96.99-31.35Q96.99-32.65 98.04-33.4 99.09-34.15 100.19-34.15L100.19-34.15Q101.49-34.15 102.19-33.27 102.89-32.4 102.89-31.25ZM102.19-19.6L102.19-19.6 101.79-9.1Q101.79-6.35 102.24-4.8 102.69-3.25 103.99-3.25L103.99-3.25Q105.44-3.25 106.52-3.93 107.59-4.6 108.59-5.5L108.59-5.5 109.24-5 109.24-4.45Q108.39-3.35 107.27-2.23 106.14-1.1 104.87-0.35 103.59 0.4 102.19 0.4L102.19 0.4Q101.14 0.4 100.22 0.03 99.29-0.35 98.74-1.55 98.19-2.75 98.19-5.2L98.19-5.2 98.49-16.25Q98.49-18.2 98.12-19.35 97.74-20.5 96.74-20.5L96.74-20.5Q95.94-20.5 94.79-19.98 93.64-19.45 92.74-18.9L92.74-18.9 92.09-19.8Q93.79-21.15 95.72-22.35 97.64-23.55 99.09-23.55L99.09-23.55Q100.79-23.55 101.49-22.4 102.19-21.25 102.19-19.6ZM129.04-19.4L129.04-19.4 126.34-16.95 125.74-17.2Q125.54-18.25 124.94-19.18 124.34-20.1 123.09-20.1L123.09-20.1Q121.54-20.1 120.59-19.05 119.64-18 119.24-17L119.24-17Q118.89-16.2 118.84-14.7 118.79-13.2 118.84-11.53 118.89-9.85 118.89-8.5L118.89-8.5Q118.89-4.75 119.04-0.9L119.04-0.9 115.54 0.15 114.79-0.3Q115.04-2.95 115.21-6.05 115.39-9.15 115.39-12.15L115.39-12.15Q115.39-14.1 115.34-16.05 115.29-18 114.84-19.3 114.39-20.6 113.24-20.6L113.24-20.6Q112.39-20.6 111.34-20.1 110.29-19.6 109.34-19.05L109.34-19.05 108.74-19.9Q109.74-20.7 110.91-21.55 112.09-22.4 113.29-23.03 114.49-23.65 115.49-23.65L115.49-23.65Q117.19-23.65 118.04-22.65 118.89-21.65 119.09-20.05L119.09-20.05 119.59-19.85Q120.34-20.55 121.26-21.38 122.19-22.2 123.19-22.78 124.19-23.35 125.09-23.35L125.09-23.35Q128.64-23.35 129.04-19.4ZM139.84-31.25L139.84-31.25Q139.79-30 138.91-29.23 138.04-28.45 136.84-28.45L136.84-28.45Q135.64-28.45 134.79-29.3 133.94-30.15 133.94-31.35L133.94-31.35Q133.94-32.65 134.99-33.4 136.04-34.15 137.14-34.15L137.14-34.15Q138.44-34.15 139.14-33.27 139.84-32.4 139.84-31.25ZM139.14-19.6L139.14-19.6 138.74-9.1Q138.74-6.35 139.19-4.8 139.64-3.25 140.94-3.25L140.94-3.25Q142.39-3.25 143.46-3.93 144.54-4.6 145.54-5.5L145.54-5.5 146.19-5 146.19-4.45Q145.34-3.35 144.21-2.23 143.09-1.1 141.81-0.35 140.54 0.4 139.14 0.4L139.14 0.4Q138.09 0.4 137.16 0.03 136.24-0.35 135.69-1.55 135.14-2.75 135.14-5.2L135.14-5.2 135.44-16.25Q135.44-18.2 135.06-19.35 134.69-20.5 133.69-20.5L133.69-20.5Q132.89-20.5 131.74-19.98 130.59-19.45 129.69-18.9L129.69-18.9 129.04-19.8Q130.74-21.15 132.66-22.35 134.59-23.55 136.04-23.55L136.04-23.55Q137.74-23.55 138.44-22.4 139.14-21.25 139.14-19.6ZM155.43-0.9L155.43-0.9 151.93 0.3 151.18-0.05Q151.23-1 151.31-2.85 151.38-4.7 151.46-6.93 151.53-9.15 151.58-11.28 151.63-13.4 151.63-14.9L151.63-14.9Q151.63-17.4 151.33-19.03 151.03-20.65 149.78-20.65L149.78-20.65Q148.98-20.65 148.06-20.13 147.13-19.6 146.03-18.9L146.03-18.9 145.18-20Q146.23-20.75 147.43-21.58 148.63-22.4 149.83-22.98 151.03-23.55 151.93-23.55L151.93-23.55Q153.83-23.55 154.58-22.55 155.33-21.55 155.53-20.15L155.53-20.15 155.93-19.85Q158.03-21.15 160.51-22.3 162.98-23.45 165.38-23.45L165.38-23.45Q166.48-23.45 167.51-23.15 168.53-22.85 169.23-22L169.23-22Q169.73-21.4 169.93-19.83 170.13-18.25 170.18-16.32 170.23-14.4 170.23-12.8L170.23-12.8Q170.23-9.05 170.26-6.9 170.28-4.75 170.76-3.88 171.23-3 172.63-3L172.63-3Q173.48-3 174.58-3.65 175.68-4.3 176.63-5L176.63-5 177.28-5 177.73-3.95Q176.03-2.25 173.86-0.88 171.68 0.5 169.88 0.5L169.88 0.5Q167.83 0.5 167.06-0.8 166.28-2.1 166.28-3.9L166.28-3.9 166.53-12.45Q166.53-16.2 165.61-18.35 164.68-20.5 162.03-20.5L162.03-20.5Q160.33-20.5 158.63-19.53 156.93-18.55 155.58-17.45L155.58-17.45Q155.48-14.75 155.38-11.65 155.28-8.55 155.28-5.8L155.28-5.8Q155.28-4.75 155.33-3.58 155.38-2.4 155.43-0.9ZM195.48-2.25L195.48-2.25 195.03-2.6Q193.08-1.5 190.96-0.48 188.83 0.55 186.48 0.55L186.48 0.55Q184.43 0.55 182.78-0.68 181.13-1.9 180.18-4.1 179.23-6.3 179.23-9.2L179.23-9.2Q179.23-13.65 180.76-16.8 182.28-19.95 184.88-21.6 187.48-23.25 190.68-23.25L190.68-23.25Q192.23-23.25 193.76-22.88 195.28-22.5 196.53-21.55L196.53-21.55 199.08-23 199.78-22.7Q199.68-21 199.61-19.33 199.53-17.65 199.46-15.6 199.38-13.55 199.36-10.78 199.33-8 199.33-4.1L199.33-4.1Q199.33-2.65 199.16-0.28 198.98 2.1 198.23 4.3L198.23 4.3Q197.63 5.95 196.48 7.18 195.33 8.4 194.58 8.95L194.58 8.95Q192.68 10.4 190.73 11.03 188.78 11.65 186.48 11.65L186.48 11.65Q184.83 11.65 183.13 11.1 181.43 10.55 179.58 8.85L179.58 8.85 182.03 5.75 182.73 5.75Q183.18 6.65 184.03 7.53 184.88 8.4 185.86 9 186.83 9.6 187.73 9.6L187.73 9.6Q190.38 9.6 192.06 8 193.73 6.4 194.56 3.7 195.38 1 195.48-2.25ZM195.48-4.95L195.48-4.95 195.48-18.15Q195.38-19.9 194.01-20.73 192.63-21.55 191.03-21.55L191.03-21.55Q188.83-21.55 187.38-20.43 185.93-19.3 185.08-17.53 184.23-15.75 183.88-13.8 183.53-11.85 183.53-10.15L183.53-10.15Q183.53-7.9 184.43-6.2 185.33-4.5 186.66-3.55 187.98-2.6 189.23-2.6L189.23-2.6Q190.38-2.6 191.61-3 192.83-3.4 193.88-3.95 194.93-4.5 195.48-4.95ZM233.43-0.9L229.73 0.5 229.23 0.2Q229.23-0.6 229.35-2.75 229.48-4.9 229.6-7.75 229.73-10.6 229.73-13.45L229.73-13.45Q229.73-16.55 228.93-18.28 228.13-20 225.63-20L225.63-20Q224.48-20 223.2-19.53 221.93-19.05 220.98-18.5 220.03-17.95 219.78-17.8L219.78-17.8Q219.68-15.1 219.6-12.4 219.53-9.7 219.53-6.95L219.53-6.95Q219.53-5.4 219.55-3.83 219.58-2.25 219.63-0.7L219.63-0.7 216.28 0.5 215.58 0.1Q215.63-3.35 215.78-6.8 215.93-10.25 215.93-13.65L215.93-13.65Q215.93-15.55 215.85-17.13 215.78-18.7 215.38-19.65 214.98-20.6 213.93-20.6L213.93-20.6Q213.33-20.6 212.18-20.13 211.03-19.65 210.18-19.15L210.18-19.15 209.58-20.1Q211.08-21.3 212.83-22.4 214.58-23.5 216.43-23.55L216.43-23.55Q218.33-23.55 218.93-22.4 219.53-21.25 219.53-19.85L219.53-19.85 219.93-19.55Q221.88-20.6 224.08-21.78 226.28-22.95 228.53-22.95L228.53-22.95Q229.93-22.95 231.13-22.25 232.33-21.55 233.03-20.35L233.03-20.35 233.83-20.25Q234.78-20.75 236.08-21.4 237.38-22.05 238.88-22.53 240.38-23 241.83-23L241.83-23Q242.93-23 243.95-22.73 244.98-22.45 245.78-21.65L245.78-21.65Q246.78-20.65 246.78-18.4 246.78-16.15 246.78-12.4L246.78-12.4 246.78-5.85Q246.78-5.2 246.95-4.42 247.13-3.65 247.68-3.13 248.23-2.6 249.33-2.6L249.33-2.6Q250.13-2.6 251.2-3.28 252.28-3.95 253.18-4.6L253.18-4.6 253.88-4.6 254.23-3.55Q253.13-2.55 251.83-1.5 250.53-0.45 249.13 0.23 247.73 0.9 246.23 0.9L246.23 0.9Q244.48 0.9 243.65-0.33 242.83-1.55 242.83-2.95L242.83-2.95Q242.83-3.25 242.88-4.4 242.93-5.55 242.95-7.13 242.98-8.7 243.03-10.38 243.08-12.05 243.08-13.45L243.08-13.45Q243.08-16.55 242.18-18.28 241.28-20 238.83-20L238.83-20Q236.98-20 235.63-19.45 234.28-18.9 233.23-18.3L233.23-18.3Q233.18-16.6 233.15-14.88 233.13-13.15 233.13-11.4L233.13-11.4Q233.13-6.1 233.43-0.9L233.43-0.9ZM264.02-31.25L264.02-31.25Q263.97-30 263.1-29.23 262.22-28.45 261.02-28.45L261.02-28.45Q259.82-28.45 258.97-29.3 258.12-30.15 258.12-31.35L258.12-31.35Q258.12-32.65 259.17-33.4 260.22-34.15 261.32-34.15L261.32-34.15Q262.62-34.15 263.32-33.27 264.02-32.4 264.02-31.25ZM263.32-19.6L263.32-19.6 262.92-9.1Q262.92-6.35 263.37-4.8 263.82-3.25 265.12-3.25L265.12-3.25Q266.57-3.25 267.65-3.93 268.72-4.6 269.72-5.5L269.72-5.5 270.37-5 270.37-4.45Q269.52-3.35 268.4-2.23 267.27-1.1 266-0.35 264.72 0.4 263.32 0.4L263.32 0.4Q262.27 0.4 261.35 0.03 260.42-0.35 259.87-1.55 259.32-2.75 259.32-5.2L259.32-5.2 259.62-16.25Q259.62-18.2 259.25-19.35 258.87-20.5 257.87-20.5L257.87-20.5Q257.07-20.5 255.92-19.98 254.77-19.45 253.87-18.9L253.87-18.9 253.22-19.8Q254.92-21.15 256.85-22.35 258.77-23.55 260.22-23.55L260.22-23.55Q261.92-23.55 262.62-22.4 263.32-21.25 263.32-19.6ZM279.62-0.9L279.62-0.9 276.12 0.3 275.37-0.05Q275.42-1 275.5-2.85 275.57-4.7 275.65-6.93 275.72-9.15 275.77-11.28 275.82-13.4 275.82-14.9L275.82-14.9Q275.82-17.4 275.52-19.03 275.22-20.65 273.97-20.65L273.97-20.65Q273.17-20.65 272.25-20.13 271.32-19.6 270.22-18.9L270.22-18.9 269.37-20Q270.42-20.75 271.62-21.58 272.82-22.4 274.02-22.98 275.22-23.55 276.12-23.55L276.12-23.55Q278.02-23.55 278.77-22.55 279.52-21.55 279.72-20.15L279.72-20.15 280.12-19.85Q282.22-21.15 284.7-22.3 287.17-23.45 289.57-23.45L289.57-23.45Q290.67-23.45 291.7-23.15 292.72-22.85 293.42-22L293.42-22Q293.92-21.4 294.12-19.83 294.32-18.25 294.37-16.32 294.42-14.4 294.42-12.8L294.42-12.8Q294.42-9.05 294.45-6.9 294.47-4.75 294.95-3.88 295.42-3 296.82-3L296.82-3Q297.67-3 298.77-3.65 299.87-4.3 300.82-5L300.82-5 301.47-5 301.92-3.95Q300.22-2.25 298.05-0.88 295.87 0.5 294.07 0.5L294.07 0.5Q292.02 0.5 291.25-0.8 290.47-2.1 290.47-3.9L290.47-3.9 290.72-12.45Q290.72-16.2 289.8-18.35 288.87-20.5 286.22-20.5L286.22-20.5Q284.52-20.5 282.82-19.53 281.12-18.55 279.77-17.45L279.77-17.45Q279.67-14.75 279.57-11.65 279.47-8.55 279.47-5.8L279.47-5.8Q279.47-4.75 279.52-3.58 279.57-2.4 279.62-0.9ZM314.87-31.9L314.87-31.9 314.82-33 315.07-33.2 323.22-34.2 323.62-33.75 323.62-5.5Q323.72-4.4 324.07-3.4 324.42-2.4 325.52-2.4L325.52-2.4Q325.92-2.4 326.87-2.73 327.82-3.05 328.57-3.35L328.57-3.35 328.97-2.2Q327.52-1.2 325.74-0.13 323.97 0.95 322.52 0.95L322.52 0.95Q321.07 0.95 320.37-0.23 319.67-1.4 319.57-2.7L319.57-2.7Q317.67-1.4 315.37-0.25 313.07 0.9 310.87 0.9L310.87 0.9Q308.72 0.9 307.29 0 305.87-0.9 305.02-2.38 304.17-3.85 303.79-5.6 303.42-7.35 303.42-9L303.42-9Q303.42-11.65 304.14-14.15 304.87-16.65 306.32-18.68 307.77-20.7 309.99-21.9 312.22-23.1 315.27-23.1L315.27-23.1Q316.37-23.1 317.39-22.9 318.42-22.7 319.42-22.35L319.42-22.35 319.77-22.55Q319.77-23.9 319.74-25.4 319.72-26.9 319.67-28.18 319.62-29.45 319.42-30.1L319.42-30.1Q319.17-31 318.39-31.38 317.62-31.75 316.67-31.83 315.72-31.9 314.87-31.9ZM319.57-4.75L319.57-4.75 319.77-15.5Q319.77-16.85 319.47-18.23 319.17-19.6 318.17-20.5 317.17-21.4 315.07-21.4L315.07-21.4Q312.97-21.4 311.57-20.33 310.17-19.25 309.32-17.55 308.47-15.85 308.12-13.88 307.77-11.9 307.77-10.15L307.77-10.15Q307.77-8.4 308.32-6.6 308.87-4.8 310.14-3.6 311.42-2.4 313.67-2.4L313.67-2.4Q314.97-2.4 316.77-3.08 318.57-3.75 319.57-4.75ZM346.07-19.15L346.07-19.15 343.32-17.3 342.72-17.65Q342.62-19.3 341.89-20.43 341.17-21.55 339.47-21.55L339.47-21.55Q337.72-21.55 336.54-20.4 335.37-19.25 335.37-17.5L335.37-17.5Q335.37-16 336.74-14.93 338.12-13.85 340.87-12.7L340.87-12.7Q343.77-11.45 345.19-10.05 346.62-8.65 346.62-6.9L346.62-6.9Q346.62-4.35 345.19-2.63 343.77-0.9 341.59-0.03 339.42 0.85 337.22 0.85L337.22 0.85Q334.97 0.85 333.04-0.05 331.12-0.95 329.87-3.3L329.87-3.3 332.32-6.85 333.02-6.8Q333.17-4.5 334.77-2.78 336.37-1.05 338.72-1.05L338.72-1.05Q340.32-1.05 341.64-2.18 342.97-3.3 342.97-4.85L342.97-4.85Q342.97-6.15 342.22-7.05 341.47-7.95 340.34-8.6 339.22-9.25 338.02-9.75L338.02-9.75Q336.47-10.4 335.02-11.25 333.57-12.1 332.67-13.3 331.77-14.5 331.77-16.15L331.77-16.15Q331.77-18.4 333.07-20 334.37-21.6 336.37-22.45 338.37-23.3 340.42-23.3L340.42-23.3Q341.72-23.3 342.99-22.9 344.27-22.5 345.14-21.6 346.02-20.7 346.07-19.15ZM351.76 10.5L351.76 10.5 350.81 9.8Q352.11 8.05 353.11 6.3 354.11 4.55 354.11 3.05L354.11 3.05Q354.11 2.5 353.96 1.93 353.81 1.35 353.46 0.95L353.46 0.95 349.96-3.2Q349.61-3.65 349.61-4.5L349.61-4.5Q349.61-5.5 350.61-6.2 351.61-6.9 352.56-6.9L352.56-6.9Q353.56-6.9 354.36-5.88 355.16-4.85 355.74-3.43 356.31-2 356.64-0.65 356.96 0.7 356.96 1.35L356.96 1.35Q356.96 3.2 355.69 5.3 354.41 7.4 351.76 10.5ZM388.41-2.95L388.41-2.95Q386.66-0.95 384.13-0.13 381.61 0.7 378.96 0.7L378.96 0.7Q375.51 0.7 373.43-0.83 371.36-2.35 370.41-4.75 369.46-7.15 369.26-9.8L369.26-9.8Q369.26-12.4 369.73-15 370.21-17.6 372.01-19.55L372.01-19.55Q373.76-21.5 376.28-22.38 378.81-23.25 381.41-23.25L381.41-23.25Q385.11-23.25 387.26-21.6 389.41-19.95 390.36-17.35 391.31-14.75 391.31-11.95L391.31-11.95Q391.31-9.5 390.68-7.15 390.06-4.8 388.41-2.95ZM380.26-21.3L380.26-21.3Q378.26-21.3 376.46-19.95 374.66-18.6 373.96-15.8L373.96-15.8Q373.76-14.85 373.66-13.9 373.56-12.95 373.56-11.95L373.56-11.95Q373.56-10.4 373.86-8.55 374.16-6.7 374.88-5.08 375.61-3.45 376.93-2.4 378.26-1.35 380.31-1.35L380.31-1.35Q382.36-1.35 383.63-2.25 384.91-3.15 385.61-4.6 386.31-6.05 386.58-7.75 386.86-9.45 386.86-11L386.86-11Q386.86-12.55 386.61-14.33 386.36-16.1 385.68-17.7 385.01-19.3 383.68-20.3 382.36-21.3 380.26-21.3ZM403.46-0.9L403.46-0.9 399.96 0.3 399.21-0.05Q399.26-1 399.33-2.85 399.41-4.7 399.48-6.93 399.56-9.15 399.61-11.28 399.66-13.4 399.66-14.9L399.66-14.9Q399.66-17.4 399.36-19.03 399.06-20.65 397.81-20.65L397.81-20.65Q397.01-20.65 396.08-20.13 395.16-19.6 394.06-18.9L394.06-18.9 393.21-20Q394.26-20.75 395.46-21.58 396.66-22.4 397.86-22.98 399.06-23.55 399.96-23.55L399.96-23.55Q401.86-23.55 402.61-22.55 403.36-21.55 403.56-20.15L403.56-20.15 403.96-19.85Q406.06-21.15 408.53-22.3 411.01-23.45 413.41-23.45L413.41-23.45Q414.51-23.45 415.53-23.15 416.56-22.85 417.26-22L417.26-22Q417.76-21.4 417.96-19.83 418.16-18.25 418.21-16.32 418.26-14.4 418.26-12.8L418.26-12.8Q418.26-9.05 418.28-6.9 418.31-4.75 418.78-3.88 419.26-3 420.66-3L420.66-3Q421.51-3 422.61-3.65 423.71-4.3 424.66-5L424.66-5 425.31-5 425.76-3.95Q424.06-2.25 421.88-0.88 419.71 0.5 417.91 0.5L417.91 0.5Q415.86 0.5 415.08-0.8 414.31-2.1 414.31-3.9L414.31-3.9 414.56-12.45Q414.56-16.2 413.63-18.35 412.71-20.5 410.06-20.5L410.06-20.5Q408.36-20.5 406.66-19.53 404.96-18.55 403.61-17.45L403.61-17.45Q403.51-14.75 403.41-11.65 403.31-8.55 403.31-5.8L403.31-5.8Q403.31-4.75 403.36-3.58 403.41-2.4 403.46-0.9ZM447.15-17L447.15-17Q447.15-16.55 446.83-16.35 446.5-16.15 446.1-15.95L446.1-15.95 432-9.85Q432.15-8.3 432.83-6.65 433.5-5 434.88-3.9 436.25-2.8 438.45-2.8L438.45-2.8Q440.5-2.8 442.48-3.85 444.45-4.9 446.15-6.2L446.15-6.2 446.7-6.1 447.35-5.2Q445.8-3.75 443.98-2.43 442.15-1.1 440.13-0.25 438.1 0.6 435.95 0.6L435.95 0.6Q433.45 0.6 431.83-0.45 430.2-1.5 429.3-3.23 428.4-4.95 428.03-7.08 427.65-9.2 427.65-11.3L427.65-11.3Q427.65-13.5 428.2-15.6 428.75-17.7 430.2-19.4L430.2-19.4Q432.05-21.55 434.63-22.73 437.2-23.9 440.05-23.9L440.05-23.9Q443.3-23.9 445.23-21.9 447.15-19.9 447.15-17ZM438.3-21.9L438.3-21.9Q437.05-21.9 435.98-21.35 434.9-20.8 434.1-19.8L434.1-19.8Q432.65-18.25 432.23-16.55 431.8-14.85 431.8-13L431.8-13Q431.8-12.8 431.83-12.58 431.85-12.35 431.9-12.1L431.9-12.1 432.1-11.9 442.2-15.9Q442.45-16 442.65-16.3 442.85-16.6 442.85-17.2L442.85-17.2Q442.85-18.25 442.3-19.35 441.75-20.45 440.73-21.18 439.7-21.9 438.3-21.9ZM465.8 10.3L465.8 10.3 461.75 11.85 461.25 11.3Q461.35 10.45 461.4 8.83 461.45 7.2 461.47 5.25 461.5 3.3 461.52 1.33 461.55-0.65 461.55-2.25 461.55-3.85 461.55-4.7L461.55-4.7 461.55-15.75Q461.55-16.9 461.37-18 461.2-19.1 460.77-19.85 460.35-20.6 459.6-20.6L459.6-20.6Q458.8-20.6 457.82-20.15 456.85-19.7 455.95-19.15L455.95-19.15 455.25-20.1Q456.75-21.3 458.57-22.4 460.4-23.5 462.05-23.5L462.05-23.5Q463.75-23.5 464.45-22.45 465.15-21.4 465.3-19.75L465.3-19.75 465.7-19.55Q467.75-21.15 470.02-22.2 472.3-23.25 474.9-23.25L474.9-23.25Q477.45-23.25 478.95-21.95 480.45-20.65 481.1-18.73 481.75-16.8 481.75-14.9L481.75-14.9Q481.75-12.15 480.82-9.4 479.9-6.65 478.17-4.4 476.45-2.15 474.05-0.8 471.65 0.55 468.75 0.55L468.75 0.55Q467.3 0.55 465.8 0.15L465.8 0.15 465.3 0.55Q465.35 1.7 465.4 3.5 465.45 5.3 465.55 7.15 465.65 9 465.8 10.3ZM465.4-3.3L465.4-3.3Q466.3-2.5 467.42-1.98 468.55-1.45 469.8-1.45L469.8-1.45Q472.05-1.45 473.55-2.4 475.05-3.35 475.92-4.93 476.8-6.5 477.17-8.33 477.55-10.15 477.55-11.95L477.55-11.95Q477.55-14.15 476.92-16 476.3-17.85 475.15-19 474-20.15 472.4-20.15L472.4-20.15Q470.5-20.15 468.85-19.4 467.2-18.65 465.45-17.25L465.45-17.25Q465.45-17.15 465.42-16.5 465.4-15.85 465.37-15.03 465.35-14.2 465.32-13.5 465.3-12.8 465.3-12.6L465.3-12.6Q465.3-10.55 465.32-8.4 465.35-6.25 465.37-4.8 465.4-3.35 465.4-3.3ZM505.3-2.95L505.3-2.95Q503.55-0.95 501.02-0.13 498.5 0.7 495.85 0.7L495.85 0.7Q492.4 0.7 490.32-0.83 488.25-2.35 487.3-4.75 486.35-7.15 486.15-9.8L486.15-9.8Q486.15-12.4 486.62-15 487.1-17.6 488.9-19.55L488.9-19.55Q490.65-21.5 493.17-22.38 495.7-23.25 498.3-23.25L498.3-23.25Q502-23.25 504.15-21.6 506.3-19.95 507.25-17.35 508.2-14.75 508.2-11.95L508.2-11.95Q508.2-9.5 507.57-7.15 506.95-4.8 505.3-2.95ZM497.15-21.3L497.15-21.3Q495.15-21.3 493.35-19.95 491.55-18.6 490.85-15.8L490.85-15.8Q490.65-14.85 490.55-13.9 490.45-12.95 490.45-11.95L490.45-11.95Q490.45-10.4 490.75-8.55 491.05-6.7 491.77-5.08 492.5-3.45 493.82-2.4 495.15-1.35 497.2-1.35L497.2-1.35Q499.25-1.35 500.52-2.25 501.8-3.15 502.5-4.6 503.2-6.05 503.47-7.75 503.75-9.45 503.75-11L503.75-11Q503.75-12.55 503.5-14.33 503.25-16.1 502.57-17.7 501.9-19.3 500.57-20.3 499.25-21.3 497.15-21.3ZM532.49-17L532.49-17Q532.49-16.55 532.17-16.35 531.84-16.15 531.44-15.95L531.44-15.95 517.34-9.85Q517.49-8.3 518.17-6.65 518.84-5 520.22-3.9 521.59-2.8 523.79-2.8L523.79-2.8Q525.84-2.8 527.82-3.85 529.79-4.9 531.49-6.2L531.49-6.2 532.04-6.1 532.69-5.2Q531.14-3.75 529.32-2.43 527.49-1.1 525.47-0.25 523.44 0.6 521.29 0.6L521.29 0.6Q518.79 0.6 517.17-0.45 515.54-1.5 514.64-3.23 513.74-4.95 513.37-7.08 512.99-9.2 512.99-11.3L512.99-11.3Q512.99-13.5 513.54-15.6 514.09-17.7 515.54-19.4L515.54-19.4Q517.39-21.55 519.97-22.73 522.54-23.9 525.39-23.9L525.39-23.9Q528.64-23.9 530.57-21.9 532.49-19.9 532.49-17ZM523.64-21.9L523.64-21.9Q522.39-21.9 521.32-21.35 520.24-20.8 519.44-19.8L519.44-19.8Q517.99-18.25 517.57-16.55 517.14-14.85 517.14-13L517.14-13Q517.14-12.8 517.17-12.58 517.19-12.35 517.24-12.1L517.24-12.1 517.44-11.9 527.54-15.9Q527.79-16 527.99-16.3 528.19-16.6 528.19-17.2L528.19-17.2Q528.19-18.25 527.64-19.35 527.09-20.45 526.07-21.18 525.04-21.9 523.64-21.9ZM557.04-0.9L553.34 0.5 552.84 0.2Q552.84-0.6 552.97-2.75 553.09-4.9 553.22-7.75 553.34-10.6 553.34-13.45L553.34-13.45Q553.34-16.55 552.54-18.28 551.74-20 549.24-20L549.24-20Q548.09-20 546.82-19.53 545.54-19.05 544.59-18.5 543.64-17.95 543.39-17.8L543.39-17.8Q543.29-15.1 543.22-12.4 543.14-9.7 543.14-6.95L543.14-6.95Q543.14-5.4 543.17-3.83 543.19-2.25 543.24-0.7L543.24-0.7 539.89 0.5 539.19 0.1Q539.24-3.35 539.39-6.8 539.54-10.25 539.54-13.65L539.54-13.65Q539.54-15.55 539.47-17.13 539.39-18.7 538.99-19.65 538.59-20.6 537.54-20.6L537.54-20.6Q536.94-20.6 535.79-20.13 534.64-19.65 533.79-19.15L533.79-19.15 533.19-20.1Q534.69-21.3 536.44-22.4 538.19-23.5 540.04-23.55L540.04-23.55Q541.94-23.55 542.54-22.4 543.14-21.25 543.14-19.85L543.14-19.85 543.54-19.55Q545.49-20.6 547.69-21.78 549.89-22.95 552.14-22.95L552.14-22.95Q553.54-22.95 554.74-22.25 555.94-21.55 556.64-20.35L556.64-20.35 557.44-20.25Q558.39-20.75 559.69-21.4 560.99-22.05 562.49-22.53 563.99-23 565.44-23L565.44-23Q566.54-23 567.57-22.73 568.59-22.45 569.39-21.65L569.39-21.65Q570.39-20.65 570.39-18.4 570.39-16.15 570.39-12.4L570.39-12.4 570.39-5.85Q570.39-5.2 570.57-4.42 570.74-3.65 571.29-3.13 571.84-2.6 572.94-2.6L572.94-2.6Q573.74-2.6 574.82-3.28 575.89-3.95 576.79-4.6L576.79-4.6 577.49-4.6 577.84-3.55Q576.74-2.55 575.44-1.5 574.14-0.45 572.74 0.23 571.34 0.9 569.84 0.9L569.84 0.9Q568.09 0.9 567.27-0.33 566.44-1.55 566.44-2.95L566.44-2.95Q566.44-3.25 566.49-4.4 566.54-5.55 566.57-7.13 566.59-8.7 566.64-10.38 566.69-12.05 566.69-13.45L566.69-13.45Q566.69-16.55 565.79-18.28 564.89-20 562.44-20L562.44-20Q560.59-20 559.24-19.45 557.89-18.9 556.84-18.3L556.84-18.3Q556.79-16.6 556.77-14.88 556.74-13.15 556.74-11.4L556.74-11.4Q556.74-6.1 557.04-0.9L557.04-0.9ZM598.53-23.3L598.53-23.3Q599.74-23.3 601.21-22.85 602.68-22.4 603.88-21.55L603.88-21.55 606.53-23.1 606.78-22.85Q606.49-17.4 606.49-11.95L606.49-11.95Q606.49-10.8 606.41-9.2 606.34-7.6 606.43-6.1 606.53-4.6 606.99-3.6 607.43-2.6 608.43-2.6L608.43-2.6Q608.99-2.6 609.93-2.9 610.88-3.2 611.68-3.5L611.68-3.5 612.03-2.3Q611.03-1.7 609.88-1.03 608.74-0.35 607.63 0.13 606.53 0.6 605.74 0.6L605.74 0.6Q604.34 0.6 603.74-0.25 603.13-1.1 602.88-2.35L602.88-2.35 602.13-2.55Q600.28-1.35 598.24-0.38 596.18 0.6 593.99 0.6L593.99 0.6Q591.88 0.6 590.49-0.3 589.09-1.2 588.24-2.65 587.38-4.1 587.01-5.83 586.63-7.55 586.63-9.25L586.63-9.25Q586.63-11.9 587.31-14.4 587.99-16.9 589.41-18.93 590.84-20.95 593.09-22.13 595.34-23.3 598.53-23.3ZM597.49-2.7L597.49-2.7Q598.93-2.7 600.31-3.4 601.68-4.1 602.78-4.95L602.78-4.95 602.78-16.45Q602.78-17.45 602.68-18.35 602.59-19.25 601.99-19.9L601.99-19.9Q601.34-20.6 600.43-21.08 599.53-21.55 598.59-21.55L598.59-21.55Q595.84-21.55 593.84-19.65L593.84-19.65Q592.99-18.85 592.11-16.7 591.24-14.55 591.13-10.75L591.13-10.75Q591.09-9.2 591.38-7.63 591.68-6.05 592.53-4.75L592.53-4.75Q593.34-3.5 594.71-3.1 596.09-2.7 597.49-2.7ZM618.08-29.1L618.08-29.1 622.28-30.55 622.63-30.3Q622.43-28.15 622.28-26.18 622.13-24.2 622.08-22L622.08-22 622.38-21.75 628.78-21.75 629.03-21.55 628.63-20.25 628.33-20 622.38-20 622.08-19.7 622.08-10.25Q622.08-8.5 622.31-6.75 622.53-5 623.31-3.88 624.08-2.75 625.63-2.75L625.63-2.75Q626.58-2.75 627.83-3.43 629.08-4.1 630.18-4.8L630.18-4.8 630.78-4.7 631.13-3.95Q629.43-2.35 627.28-0.95 625.13 0.45 622.93 0.45L622.93 0.45Q622.08 0.45 621.06 0.13 620.03-0.2 619.33-1.1L619.33-1.1Q618.83-1.8 618.58-2.6 618.33-3.4 618.26-5.1 618.18-6.8 618.18-10.15L618.18-10.15 618.18-19.65 617.88-20 612.28-20 612.03-20.25 612.38-21.45 612.68-21.75 617.88-21.75 618.18-22.05Q618.18-23.95 618.18-26.05 618.18-28.15 618.08-29.1ZM652.48-23.3L652.48-23.3Q653.68-23.3 655.15-22.85 656.63-22.4 657.83-21.55L657.83-21.55 660.48-23.1 660.73-22.85Q660.43-17.4 660.43-11.95L660.43-11.95Q660.43-10.8 660.35-9.2 660.28-7.6 660.38-6.1 660.48-4.6 660.93-3.6 661.38-2.6 662.38-2.6L662.38-2.6Q662.93-2.6 663.88-2.9 664.83-3.2 665.63-3.5L665.63-3.5 665.98-2.3Q664.98-1.7 663.83-1.03 662.68-0.35 661.58 0.13 660.48 0.6 659.68 0.6L659.68 0.6Q658.28 0.6 657.68-0.25 657.08-1.1 656.83-2.35L656.83-2.35 656.08-2.55Q654.23-1.35 652.18-0.38 650.13 0.6 647.93 0.6L647.93 0.6Q645.83 0.6 644.43-0.3 643.03-1.2 642.18-2.65 641.33-4.1 640.95-5.83 640.58-7.55 640.58-9.25L640.58-9.25Q640.58-11.9 641.25-14.4 641.93-16.9 643.35-18.93 644.78-20.95 647.03-22.13 649.28-23.3 652.48-23.3ZM651.43-2.7L651.43-2.7Q652.88-2.7 654.25-3.4 655.63-4.1 656.73-4.95L656.73-4.95 656.73-16.45Q656.73-17.45 656.63-18.35 656.53-19.25 655.93-19.9L655.93-19.9Q655.28-20.6 654.38-21.08 653.48-21.55 652.53-21.55L652.53-21.55Q649.78-21.55 647.78-19.65L647.78-19.65Q646.93-18.85 646.05-16.7 645.18-14.55 645.08-10.75L645.08-10.75Q645.03-9.2 645.33-7.63 645.63-6.05 646.48-4.75L646.48-4.75Q647.28-3.5 648.65-3.1 650.03-2.7 651.43-2.7ZM679.32-29.1L679.32-29.1 683.52-30.55 683.87-30.3Q683.67-28.15 683.52-26.18 683.37-24.2 683.32-22L683.32-22 683.62-21.75 690.02-21.75 690.27-21.55 689.87-20.25 689.57-20 683.62-20 683.32-19.7 683.32-10.25Q683.32-8.5 683.55-6.75 683.77-5 684.55-3.88 685.32-2.75 686.87-2.75L686.87-2.75Q687.82-2.75 689.07-3.43 690.32-4.1 691.42-4.8L691.42-4.8 692.02-4.7 692.37-3.95Q690.67-2.35 688.52-0.95 686.37 0.45 684.17 0.45L684.17 0.45Q683.32 0.45 682.3 0.13 681.27-0.2 680.57-1.1L680.57-1.1Q680.07-1.8 679.82-2.6 679.57-3.4 679.5-5.1 679.42-6.8 679.42-10.15L679.42-10.15 679.42-19.65 679.12-20 673.52-20 673.27-20.25 673.62-21.45 673.92-21.75 679.12-21.75 679.42-22.05Q679.42-23.95 679.42-26.05 679.42-28.15 679.32-29.1ZM702.82-31.25L702.82-31.25Q702.77-30 701.89-29.23 701.02-28.45 699.82-28.45L699.82-28.45Q698.62-28.45 697.77-29.3 696.92-30.15 696.92-31.35L696.92-31.35Q696.92-32.65 697.97-33.4 699.02-34.15 700.12-34.15L700.12-34.15Q701.42-34.15 702.12-33.27 702.82-32.4 702.82-31.25ZM702.12-19.6L702.12-19.6 701.72-9.1Q701.72-6.35 702.17-4.8 702.62-3.25 703.92-3.25L703.92-3.25Q705.37-3.25 706.44-3.93 707.52-4.6 708.52-5.5L708.52-5.5 709.17-5 709.17-4.45Q708.32-3.35 707.19-2.23 706.07-1.1 704.79-0.35 703.52 0.4 702.12 0.4L702.12 0.4Q701.07 0.4 700.14 0.03 699.22-0.35 698.67-1.55 698.12-2.75 698.12-5.2L698.12-5.2 698.42-16.25Q698.42-18.2 698.04-19.35 697.67-20.5 696.67-20.5L696.67-20.5Q695.87-20.5 694.72-19.98 693.57-19.45 692.67-18.9L692.67-18.9 692.02-19.8Q693.72-21.15 695.64-22.35 697.57-23.55 699.02-23.55L699.02-23.55Q700.72-23.55 701.42-22.4 702.12-21.25 702.12-19.6ZM732.02-0.9L728.32 0.5 727.82 0.2Q727.82-0.6 727.94-2.75 728.07-4.9 728.19-7.75 728.32-10.6 728.32-13.45L728.32-13.45Q728.32-16.55 727.52-18.28 726.72-20 724.22-20L724.22-20Q723.07-20 721.79-19.53 720.52-19.05 719.57-18.5 718.62-17.95 718.37-17.8L718.37-17.8Q718.27-15.1 718.19-12.4 718.12-9.7 718.12-6.95L718.12-6.95Q718.12-5.4 718.14-3.83 718.17-2.25 718.22-0.7L718.22-0.7 714.87 0.5 714.17 0.1Q714.22-3.35 714.37-6.8 714.52-10.25 714.52-13.65L714.52-13.65Q714.52-15.55 714.44-17.13 714.37-18.7 713.97-19.65 713.57-20.6 712.52-20.6L712.52-20.6Q711.92-20.6 710.77-20.13 709.62-19.65 708.77-19.15L708.77-19.15 708.17-20.1Q709.67-21.3 711.42-22.4 713.17-23.5 715.02-23.55L715.02-23.55Q716.92-23.55 717.52-22.4 718.12-21.25 718.12-19.85L718.12-19.85 718.52-19.55Q720.47-20.6 722.67-21.78 724.87-22.95 727.12-22.95L727.12-22.95Q728.52-22.95 729.72-22.25 730.92-21.55 731.62-20.35L731.62-20.35 732.42-20.25Q733.37-20.75 734.67-21.4 735.97-22.05 737.47-22.53 738.97-23 740.42-23L740.42-23Q741.52-23 742.54-22.73 743.57-22.45 744.37-21.65L744.37-21.65Q745.37-20.65 745.37-18.4 745.37-16.15 745.37-12.4L745.37-12.4 745.37-5.85Q745.37-5.2 745.54-4.42 745.72-3.65 746.27-3.13 746.82-2.6 747.92-2.6L747.92-2.6Q748.72-2.6 749.79-3.28 750.87-3.95 751.77-4.6L751.77-4.6 752.47-4.6 752.82-3.55Q751.72-2.55 750.42-1.5 749.12-0.45 747.72 0.23 746.32 0.9 744.82 0.9L744.82 0.9Q743.07 0.9 742.24-0.33 741.42-1.55 741.42-2.95L741.42-2.95Q741.42-3.25 741.47-4.4 741.52-5.55 741.54-7.13 741.57-8.7 741.62-10.38 741.67-12.05 741.67-13.45L741.67-13.45Q741.67-16.55 740.77-18.28 739.87-20 737.42-20L737.42-20Q735.57-20 734.22-19.45 732.87-18.9 731.82-18.3L731.82-18.3Q731.77-16.6 731.74-14.88 731.72-13.15 731.72-11.4L731.72-11.4Q731.72-6.1 732.02-0.9L732.02-0.9ZM774.21-17L774.21-17Q774.21-16.55 773.89-16.35 773.56-16.15 773.16-15.95L773.16-15.95 759.06-9.85Q759.21-8.3 759.89-6.65 760.56-5 761.94-3.9 763.31-2.8 765.51-2.8L765.51-2.8Q767.56-2.8 769.54-3.85 771.51-4.9 773.21-6.2L773.21-6.2 773.76-6.1 774.41-5.2Q772.86-3.75 771.04-2.43 769.21-1.1 767.19-0.25 765.16 0.6 763.01 0.6L763.01 0.6Q760.51 0.6 758.89-0.45 757.26-1.5 756.36-3.23 755.46-4.95 755.09-7.08 754.71-9.2 754.71-11.3L754.71-11.3Q754.71-13.5 755.26-15.6 755.81-17.7 757.26-19.4L757.26-19.4Q759.11-21.55 761.69-22.73 764.26-23.9 767.11-23.9L767.11-23.9Q770.36-23.9 772.29-21.9 774.21-19.9 774.21-17ZM765.36-21.9L765.36-21.9Q764.11-21.9 763.04-21.35 761.96-20.8 761.16-19.8L761.16-19.8Q759.71-18.25 759.29-16.55 758.86-14.85 758.86-13L758.86-13Q758.86-12.8 758.89-12.58 758.91-12.35 758.96-12.1L758.96-12.1 759.16-11.9 769.26-15.9Q769.51-16 769.71-16.3 769.91-16.6 769.91-17.2L769.91-17.2Q769.91-18.25 769.36-19.35 768.81-20.45 767.79-21.18 766.76-21.9 765.36-21.9Z" opacity="1" transform="matrix(1,0,0,1,0,0)" fill="#27292a" class="slogan-text-1" data-fill-palette-color="secondary" id="text-1"></path></svg></g></svg></g></svg></g></svg></g><g transform="matrix(1,0,0,1,0,0.18411184047412377)"><svg viewBox="0 0 73.64977177973788 73.64473618964996" height="73.64473618964996" width="73.64977177973788"><g><svg xmlns="http://www.w3.org/2000/svg" viewBox="4 4 56.003829099804186 56" x="0" y="0" height="73.64473618964996" width="73.64977177973788" class="icon-icon-0" data-fill-palette-color="accent" id="icon-0"><path d="M7 50A1 1 0 0 1 7 48H36V16H7A1 1 0 0 1 7 14C8.626 14 10 11.71 10 9A8 8 0 0 0 9.943 8.083C9.933 7.995 9.916 7.91 9.903 7.823Q9.858 7.53 9.793 7.25A7 7 0 0 0 9.657 6.763C9.61 6.618 9.567 6.47 9.514 6.333A6 6 0 0 0 9.201 5.667C9.148 5.571 9.096 5.474 9.038 5.385A4 4 0 0 0 8.808 5.067C8.756 4.999 8.706 4.924 8.651 4.862 8.608 4.813 8.561 4.777 8.517 4.732A3 3 0 0 0 8.22 4.46 3 3 0 0 0 8.09 4.365 2 2 0 0 0 7.814 4.22 2 2 0 0 0 7.549 4.096 1.8 1.8 0 0 0 7 4C5.374 4 4 6.29 4 9V55C4 57.71 5.374 60 7 60A1.8 1.8 0 0 0 7.54 59.906C7.57 59.896 7.6 59.89 7.63 59.879A2.2 2.2 0 0 0 8.084 59.638C8.126 59.608 8.169 59.58 8.209 59.55A3 3 0 0 0 8.58 59.21C8.632 59.154 8.68 59.1 8.726 59.047A4 4 0 0 0 9.03 58.627 5 5 0 0 0 9.307 58.119C9.35 58.034 9.395 57.954 9.434 57.864 9.504 57.704 9.558 57.532 9.615 57.362 9.658 57.234 9.706 57.112 9.742 56.978 9.762 56.908 9.774 56.833 9.792 56.761A8 8 0 0 0 9.947 55.83 8 8 0 0 0 10 55C10 52.29 8.626 50 7 50M9 20H33A1 1 0 0 1 33 22H9A1 1 0 0 1 9 20M9 30H33A1 1 0 0 1 33 32H9A1 1 0 0 1 9 30M9 40H33A1 1 0 0 1 33 42H9A1 1 0 0 1 9 40" fill="#fee715" data-fill-palette-color="accent"></path><path d="M37 4H10.531C10.565 4.047 10.591 4.107 10.624 4.156 10.635 4.173 10.649 4.186 10.66 4.203A7.5 7.5 0 0 1 11.281 5.388C11.34 5.525 11.405 5.655 11.457 5.798V5.8H11.459C11.478 5.853 11.487 5.913 11.505 5.967 11.582 6.195 11.645 6.43 11.704 6.671 11.732 6.787 11.775 6.895 11.8 7.013 11.822 7.119 11.83 7.23 11.85 7.338 11.872 7.472 11.894 7.604 11.91 7.74A10 10 0 0 1 12 9 8.6 8.6 0 0 1 10.531 14H37C38.626 14 40 11.71 40 9S38.626 4 37 4" fill="#fee715" data-fill-palette-color="accent"></path><path d="M37 50H10.531A8.6 8.6 0 0 1 12 55C12 55.23 11.992 55.458 11.978 55.68 11.965 55.86 11.936 56.034 11.915 56.21 11.9 56.323 11.892 56.437 11.875 56.548A9 9 0 0 1 11.649 57.601V57.607C11.643 57.622 11.637 57.634 11.633 57.65A8 8 0 0 1 11.342 58.455C11.302 58.556 11.272 58.668 11.23 58.766L11.204 58.811A7 7 0 0 1 10.798 59.551C10.752 59.624 10.718 59.71 10.67 59.782L10.667 59.786 10.662 59.794 10.66 59.797 10.617 59.855C10.587 59.901 10.563 59.956 10.531 60H37C38.626 60 40 57.71 40 55S38.626 50 37 50" fill="#fee715" data-fill-palette-color="accent"></path><polygon points="54 34 54 4 52 4 52 34 52 38 54 38 54 34" fill="#fee715" data-fill-palette-color="accent"></polygon><path d="M56.453 25.83A1 1 0 0 1 56.562 24.106L59.994 22.37C60.054 20.365 59.963 13.198 56 7.012V31.734A12.4 12.4 0 0 0 58.81 27.42Z" fill="#fee715" data-fill-palette-color="accent"></path><rect x="48" y="44" width="10" height="2" fill="#fee715" data-fill-palette-color="accent"></rect><path d="M49.438 24.107A1 1 0 0 1 49.547 25.83L47.189 27.42A12.4 12.4 0 0 0 50 31.735V7.012C46.037 13.198 45.945 20.365 46.006 22.37Z" fill="#fee715" data-fill-palette-color="accent"></path><path d="M59 40H47A1 1 0 0 0 47 42H59A1 1 0 0 0 59 40" fill="#fee715" data-fill-palette-color="accent"></path><path d="M46 60H60V48H46ZM55 50H57A1 1 0 0 1 58 51V55A1 1 0 0 1 56 55V52H55A1 1 0 0 1 55 50M48 51A1 1 0 0 1 50 51V57A1 1 0 0 1 48 57Z" fill="#fee715" data-fill-palette-color="accent"></path></svg></g></svg></g></svg></g><defs></defs></svg><rect width="395.52" height="58.972982677256205" fill="none" stroke="none" visibility="hidden"></rect></g></svg></g></svg>