<svg xmlns="http://www.w3.org/2000/svg" version="1.1" xmlns:xlink="http://www.w3.org/1999/xlink" xmlns:svgjs="http://svgjs.dev/svgjs" width="128" height="128" viewBox="0 0 128 128"><g transform="matrix(0.8046875,0,0,0.8046875,12.221578124999994,12.229427131288084)"><svg viewBox="0 0 96 96" data-background-color="#ffffff" preserveAspectRatio="xMidYMid meet" height="128" width="128" xmlns="http://www.w3.org/2000/svg" xmlns:xlink="http://www.w3.org/1999/xlink"><g id="tight-bounds" transform="matrix(1,0,0,1,0.25950000000000273,0.26307484097749523)"><svg viewBox="0 0 95.481 95.47447176283693" height="95.47447176283693" width="95.481"><g><svg viewBox="0 0 95.481 95.47447176283693" height="95.47447176283693" width="95.481"><g><svg viewBox="0 0 95.481 95.47447176283693" height="95.47447176283693" width="95.481"><g id="textblocktransform"><svg viewBox="0 0 95.481 95.47447176283693" height="95.47447176283693" width="95.481" id="textblock"><g><svg viewBox="0 0 95.481 95.47447176283693" height="95.47447176283693" width="95.481"><g><svg viewBox="0 0 95.481 95.47447176283693" height="95.47447176283693" width="95.481"><g><svg xmlns="http://www.w3.org/2000/svg" viewBox="4 4 56.003829099804186 56" x="0" y="0" height="95.47447176283693" width="95.481" class="icon-icon-0" data-fill-palette-color="accent" id="icon-0"><path d="M7 50A1 1 0 0 1 7 48H36V16H7A1 1 0 0 1 7 14C8.626 14 10 11.71 10 9A8 8 0 0 0 9.943 8.083C9.933 7.995 9.916 7.91 9.903 7.823Q9.858 7.53 9.793 7.25A7 7 0 0 0 9.657 6.763C9.61 6.618 9.567 6.47 9.514 6.333A6 6 0 0 0 9.201 5.667C9.148 5.571 9.096 5.474 9.038 5.385A4 4 0 0 0 8.808 5.067C8.756 4.999 8.706 4.924 8.651 4.862 8.608 4.813 8.561 4.777 8.517 4.732A3 3 0 0 0 8.22 4.46 3 3 0 0 0 8.09 4.365 2 2 0 0 0 7.814 4.22 2 2 0 0 0 7.549 4.096 1.8 1.8 0 0 0 7 4C5.374 4 4 6.29 4 9V55C4 57.71 5.374 60 7 60A1.8 1.8 0 0 0 7.54 59.906C7.57 59.896 7.6 59.89 7.63 59.879A2.2 2.2 0 0 0 8.084 59.638C8.126 59.608 8.169 59.58 8.209 59.55A3 3 0 0 0 8.58 59.21C8.632 59.154 8.68 59.1 8.726 59.047A4 4 0 0 0 9.03 58.627 5 5 0 0 0 9.307 58.119C9.35 58.034 9.395 57.954 9.434 57.864 9.504 57.704 9.558 57.532 9.615 57.362 9.658 57.234 9.706 57.112 9.742 56.978 9.762 56.908 9.774 56.833 9.792 56.761A8 8 0 0 0 9.947 55.83 8 8 0 0 0 10 55C10 52.29 8.626 50 7 50M9 20H33A1 1 0 0 1 33 22H9A1 1 0 0 1 9 20M9 30H33A1 1 0 0 1 33 32H9A1 1 0 0 1 9 30M9 40H33A1 1 0 0 1 33 42H9A1 1 0 0 1 9 40" fill="#fee715" data-fill-palette-color="accent"></path><path d="M37 4H10.531C10.565 4.047 10.591 4.107 10.624 4.156 10.635 4.173 10.649 4.186 10.66 4.203A7.5 7.5 0 0 1 11.281 5.388C11.34 5.525 11.405 5.655 11.457 5.798V5.8H11.459C11.478 5.853 11.487 5.913 11.505 5.967 11.582 6.195 11.645 6.43 11.704 6.671 11.732 6.787 11.775 6.895 11.8 7.013 11.822 7.119 11.83 7.23 11.85 7.338 11.872 7.472 11.894 7.604 11.91 7.74A10 10 0 0 1 12 9 8.6 8.6 0 0 1 10.531 14H37C38.626 14 40 11.71 40 9S38.626 4 37 4" fill="#fee715" data-fill-palette-color="accent"></path><path d="M37 50H10.531A8.6 8.6 0 0 1 12 55C12 55.23 11.992 55.458 11.978 55.68 11.965 55.86 11.936 56.034 11.915 56.21 11.9 56.323 11.892 56.437 11.875 56.548A9 9 0 0 1 11.649 57.601V57.607C11.643 57.622 11.637 57.634 11.633 57.65A8 8 0 0 1 11.342 58.455C11.302 58.556 11.272 58.668 11.23 58.766L11.204 58.811A7 7 0 0 1 10.798 59.551C10.752 59.624 10.718 59.71 10.67 59.782L10.667 59.786 10.662 59.794 10.66 59.797 10.617 59.855C10.587 59.901 10.563 59.956 10.531 60H37C38.626 60 40 57.71 40 55S38.626 50 37 50" fill="#fee715" data-fill-palette-color="accent"></path><polygon points="54 34 54 4 52 4 52 34 52 38 54 38 54 34" fill="#fee715" data-fill-palette-color="accent"></polygon><path d="M56.453 25.83A1 1 0 0 1 56.562 24.106L59.994 22.37C60.054 20.365 59.963 13.198 56 7.012V31.734A12.4 12.4 0 0 0 58.81 27.42Z" fill="#fee715" data-fill-palette-color="accent"></path><rect x="48" y="44" width="10" height="2" fill="#fee715" data-fill-palette-color="accent"></rect><path d="M49.438 24.107A1 1 0 0 1 49.547 25.83L47.189 27.42A12.4 12.4 0 0 0 50 31.735V7.012C46.037 13.198 45.945 20.365 46.006 22.37Z" fill="#fee715" data-fill-palette-color="accent"></path><path d="M59 40H47A1 1 0 0 0 47 42H59A1 1 0 0 0 59 40" fill="#fee715" data-fill-palette-color="accent"></path><path d="M46 60H60V48H46ZM55 50H57A1 1 0 0 1 58 51V55A1 1 0 0 1 56 55V52H55A1 1 0 0 1 55 50M48 51A1 1 0 0 1 50 51V57A1 1 0 0 1 48 57Z" fill="#fee715" data-fill-palette-color="accent"></path></svg></g></svg></g></svg></g></svg></g></svg></g></svg></g><defs></defs></svg><rect width="95.481" height="95.47447176283693" fill="none" stroke="none" visibility="hidden"></rect></g></svg></g></svg>