<svg>
    <g id="Coffee">
	<g id="Coffee_2_">
		<g id="XMLID_31_">
			<path id="XMLID_32_" style="fill:#263238;" d="M414.98,166.73c-16.074-5.919-41.701-5.919-57.24,0
				c-15.539,5.918-15.539,15.515,0,21.434c15.539,5.919,41.166,5.918,57.24-0.001C431.054,182.245,431.054,172.648,414.98,166.73z"
				/>
		</g>
		<g id="XMLID_29_">
			<path id="XMLID_30_" style="fill:#FAFAFA;" d="M428.312,140.705l-83.5,0.091l6.328,98.377h0.079
				c0.396,3.583,3.742,7.118,10.12,9.854c13.599,5.833,36.024,5.833,50.09,0c6.599-2.736,10.061-6.271,10.468-9.854h0.082
				L428.312,140.705z"/>
		</g>
		<g id="XMLID_27_">
			<path id="XMLID_28_" style="fill:#F0F0F0;" d="M344.813,140.796l1.286,19.979c1.918,1.33,4.208,2.594,6.974,3.739
				c18.055,7.478,47.832,7.477,66.509,0c0.807-0.322,1.481-0.676,2.213-1.016c2.977-1.404,5.241-2.948,5.241-2.948l1.276-19.845
				L344.813,140.796z"/>
		</g>
		<g id="XMLID_9_">
			<g id="XMLID_25_">
				<path id="XMLID_26_" style="fill:#27DEBF;" d="M433.59,143.613v-15.04h-9.731c-1.299-0.684-2.717-1.343-4.276-1.967
					c-18.677-7.478-48.454-7.478-66.51-0.001c-1.503,0.623-2.834,1.287-4.087,1.968h-9.455v15.041l0,0
					c0,4.9,4.514,9.801,13.542,13.539c18.056,7.477,47.833,7.477,66.51-0.001C428.922,153.414,433.591,148.513,433.59,143.613z"/>
			</g>
			<g id="XMLID_23_">
				<path id="XMLID_24_" style="fill:#27DEBF;" d="M419.582,115.035c-18.677-7.477-48.454-7.478-66.509,0
					c-18.055,7.477-18.056,19.601,0,27.078c18.056,7.478,47.833,7.477,66.509,0C438.259,134.635,438.259,122.512,419.582,115.035z"
					/>
			</g>
			<g id="XMLID_21_" style="opacity:0.3;">
				<path id="XMLID_22_" style="fill:#FFFFFF;" d="M419.582,115.035c-18.677-7.477-48.454-7.478-66.509,0
					c-18.055,7.477-18.056,19.601,0,27.078c18.056,7.478,47.833,7.477,66.509,0C438.259,134.635,438.259,122.512,419.582,115.035z"
					/>
			</g>
			<path id="XMLID_20_" style="fill:#27DEBF;" d="M421.599,124.342h0.003l-3.766-13.747H355.28l-3.772,13.747h0.003
				c-1.4,3.906,1.884,8.004,9.865,11.007c13.579,5.107,35.973,5.107,50.019-0.001C419.65,132.346,423.047,128.248,421.599,124.342z"
				/>
			<g id="XMLID_18_">
				<path id="XMLID_19_" style="fill:#27DEBF;" d="M408.645,103.595c-12.491-4.542-32.405-4.542-44.48-0.001
					c-12.075,4.542-12.075,11.907,0,16.449c12.075,4.543,31.989,4.542,44.48,0C421.135,115.501,421.135,108.137,408.645,103.595z"/>
			</g>
			<g id="XMLID_16_" style="opacity:0.3;">
				<path id="XMLID_17_" style="fill:#FFFFFF;" d="M408.645,103.595c-12.491-4.542-32.405-4.542-44.48-0.001
					c-12.075,4.542-12.075,11.907,0,16.449c12.075,4.543,31.989,4.542,44.48,0C421.135,115.501,421.135,108.137,408.645,103.595z"/>
			</g>
			<g id="XMLID_14_">
				<path id="XMLID_15_" style="fill:#27DEBF;" d="M413.681,111.831c-0.022,0.173-0.346,0.756-1.383,1.556
					c-0.973,0.735-2.594,1.664-5.122,2.594c-5.512,1.989-13.142,3.156-20.923,3.156c-7.781,0-15.281-1.145-20.577-3.134
					c-2.486-0.929-4.041-1.88-4.95-2.615c-1.016-0.821-1.296-1.426-1.296-1.578c0-0.302,1.08-2.226,6.246-4.171
					c5.296-1.989,12.796-3.134,20.577-3.134c7.781,0,15.411,1.145,20.923,3.155C412.362,109.54,413.659,111.442,413.681,111.831z"/>
			</g>
			<g id="XMLID_12_" style="opacity:0.1;">
				<path id="XMLID_13_" d="M412.298,113.387c-0.973,0.735-2.594,1.664-5.122,2.594c-5.512,1.989-13.142,3.156-20.923,3.156
					c-7.781,0-15.281-1.145-20.577-3.134c-2.486-0.929-4.041-1.88-4.95-2.615c0.908-0.735,2.464-1.686,4.95-2.615
					c5.296-1.988,12.796-3.134,20.577-3.134c7.781,0,15.411,1.145,20.923,3.155C409.704,111.723,411.325,112.631,412.298,113.387z"
					/>
			</g>
			<g id="XMLID_10_">
				<path id="XMLID_11_" style="fill:#263238;" d="M399.783,113.669c1.819-1.031,4.031-1.452,4.94-0.941
					c0.91,0.511,0.172,1.773-1.647,2.818c-1.819,1.044-4.031,1.466-4.941,0.941C397.226,115.961,397.963,114.7,399.783,113.669z"/>
			</g>
		</g>
		<g id="XMLID_6_">
			<path id="XMLID_8_" style="fill:#455A64;" d="M348.429,213.093c0,3.655,3.66,7.309,10.979,10.097
				c14.64,5.576,38.783,5.576,53.926,0c7.558-2.783,11.344-6.429,11.357-10.078l2.344-35.664
				c-0.001,3.878-4.019,7.757-12.055,10.716c-16.074,5.919-41.701,5.92-57.24,0.001c-7.77-2.96-11.655-6.839-11.654-10.718
				L348.429,213.093z"/>
		</g>
		<g id="XMLID_1_">
			<g id="XMLID_4_">
				<path id="XMLID_5_" style="fill:#263238;" d="M381.499,215.202c-1.359-1.828-2.11-4.074-3.21-6.053
					c-2.191-3.941-5.323-6.62-9.327-8.212c-0.536-0.213-1.197,0.008-1.452,0.525c-2.028,4.128-0.784,9.909,3.413,14.106
					c4.155,4.155,9.877,5.441,13.999,3.501c0.234-0.11,0.298-0.565,0.109-0.676C383.704,217.62,382.52,216.575,381.499,215.202z"/>
			</g>
			<g id="XMLID_2_">
				<path id="XMLID_3_" style="fill:#263238;" d="M371.197,199.804c2.162,0.825,4.182,2.126,5.881,3.618
					c1.818,1.597,3.225,3.635,4.255,5.824c1.566,3.326,3.06,5.383,5.356,7.095c0.499,0.373,1.262,0.272,1.606-0.248
					c2.741-4.148,1.654-10.505-2.87-15.029c-4.286-4.285-10.235-5.516-14.378-3.307
					C370.215,198.202,370.315,199.469,371.197,199.804z"/>
			</g>
		</g>
	</g>
</g>
</svg>